<svg aria-roledescription="er" role="graphics-document document" viewBox="0 0 450.6953125 887.5" style="max-width: 450.695px; background-color: white;" xmlns:xlink="http://www.w3.org/1999/xlink" xmlns="http://www.w3.org/2000/svg" width="100%" id="my-svg"><style>#my-svg{font-family:"trebuchet ms",verdana,arial,sans-serif;font-size:16px;fill:#000000;}#my-svg .error-icon{fill:#552222;}#my-svg .error-text{fill:#552222;stroke:#552222;}#my-svg .edge-thickness-normal{stroke-width:2px;}#my-svg .edge-thickness-thick{stroke-width:3.5px;}#my-svg .edge-pattern-solid{stroke-dasharray:0;}#my-svg .edge-pattern-dashed{stroke-dasharray:3;}#my-svg .edge-pattern-dotted{stroke-dasharray:2;}#my-svg .marker{fill:#000000;stroke:#000000;}#my-svg .marker.cross{stroke:#000000;}#my-svg svg{font-family:"trebuchet ms",verdana,arial,sans-serif;font-size:16px;}#my-svg .entityBox{fill:#cde498;stroke:#13540c;}#my-svg .attributeBoxOdd{fill:#ffffff;stroke:#13540c;}#my-svg .attributeBoxEven{fill:#f2f2f2;stroke:#13540c;}#my-svg .relationshipLabelBox{fill:hsl(78.1578947368, 58.4615384615%, 84.5098039216%);opacity:0.7;background-color:hsl(78.1578947368, 58.4615384615%, 84.5098039216%);}#my-svg .relationshipLabelBox rect{opacity:0.5;}#my-svg .relationshipLine{stroke:#000000;}#my-svg .entityTitleText{text-anchor:middle;font-size:18px;fill:#000000;}#my-svg #MD_PARENT_START{fill:#f5f5f5!important;stroke:#000000!important;stroke-width:1;}#my-svg #MD_PARENT_END{fill:#f5f5f5!important;stroke:#000000!important;stroke-width:1;}#my-svg :root{--mermaid-font-family:"trebuchet ms",verdana,arial,sans-serif;}</style><g/><defs><marker orient="auto" markerHeight="240" markerWidth="190" refY="7" refX="0" id="MD_PARENT_START"><path d="M 18,7 L9,13 L1,7 L9,1 Z"/></marker></defs><defs><marker orient="auto" markerHeight="28" markerWidth="20" refY="7" refX="19" id="MD_PARENT_END"><path d="M 18,7 L9,13 L1,7 L9,1 Z"/></marker></defs><defs><marker orient="auto" markerHeight="18" markerWidth="18" refY="9" refX="0" id="ONLY_ONE_START"><path d="M9,0 L9,18 M15,0 L15,18" fill="none" stroke="gray"/></marker></defs><defs><marker orient="auto" markerHeight="18" markerWidth="18" refY="9" refX="18" id="ONLY_ONE_END"><path d="M3,0 L3,18 M9,0 L9,18" fill="none" stroke="gray"/></marker></defs><defs><marker orient="auto" markerHeight="18" markerWidth="30" refY="9" refX="0" id="ZERO_OR_ONE_START"><circle r="6" cy="9" cx="21" fill="white" stroke="gray"/><path d="M9,0 L9,18" fill="none" stroke="gray"/></marker></defs><defs><marker orient="auto" markerHeight="18" markerWidth="30" refY="9" refX="30" id="ZERO_OR_ONE_END"><circle r="6" cy="9" cx="9" fill="white" stroke="gray"/><path d="M21,0 L21,18" fill="none" stroke="gray"/></marker></defs><defs><marker orient="auto" markerHeight="36" markerWidth="45" refY="18" refX="18" id="ONE_OR_MORE_START"><path d="M0,18 Q 18,0 36,18 Q 18,36 0,18 M42,9 L42,27" fill="none" stroke="gray"/></marker></defs><defs><marker orient="auto" markerHeight="36" markerWidth="45" refY="18" refX="27" id="ONE_OR_MORE_END"><path d="M3,9 L3,27 M9,18 Q27,0 45,18 Q27,36 9,18" fill="none" stroke="gray"/></marker></defs><defs><marker orient="auto" markerHeight="36" markerWidth="57" refY="18" refX="18" id="ZERO_OR_MORE_START"><circle r="6" cy="18" cx="48" fill="white" stroke="gray"/><path d="M0,18 Q18,0 36,18 Q18,36 0,18" fill="none" stroke="gray"/></marker></defs><defs><marker orient="auto" markerHeight="36" markerWidth="57" refY="18" refX="39" id="ZERO_OR_MORE_END"><circle r="6" cy="18" cx="9" fill="white" stroke="gray"/><path d="M21,18 Q39,0 57,18 Q39,36 21,18" fill="none" stroke="gray"/></marker></defs><path style="stroke: gray; fill: none;" marker-start="url(#ZERO_OR_ONE_START)" marker-end="url(#ONLY_ONE_END)" d="M128.72175918894288,331.5L123.55068474078574,339.8333333333333C118.37961029262858,348.1666666666667,108.0374613963143,364.8333333333333,102.86638694815714,388.9166666666667C97.6953125,413,97.6953125,444.5,97.6953125,460.25L97.6953125,476" class="er relationshipLine"/><path style="stroke: gray; fill: none;" marker-start="url(#ZERO_OR_MORE_START)" marker-end="url(#ZERO_OR_MORE_END)" d="M263.2184723382442,331.5L265.2435837193702,339.8333333333333C267.26869510049613,348.1666666666667,271.3189178627481,364.8333333333333,277.9840428714129,381.5C284.64916788007764,398.1666666666667,293.92919513515534,414.8333333333333,298.56920876269413,423.1666666666667L303.209222390233,431.5" class="er relationshipLine"/><path style="stroke: gray; fill: none;" marker-start="url(#ZERO_OR_MORE_START)" marker-end="url(#ZERO_OR_MORE_END)" d="M383.58771583171205,710.5L386.83025798476,702.1666666666666C390.0728001378081,693.8333333333334,396.557884443904,677.1666666666666,396.8135687713845,660.5C397.069253098865,643.8333333333334,391.09553744773,627.1666666666666,388.1086796221625,618.8333333333334L385.121821796595,610.5" class="er relationshipLine"/><path style="stroke: gray; fill: none;" marker-start="url(#ZERO_OR_ONE_START)" marker-end="url(#ONLY_ONE_END)" d="M275.390625,570.1862451223839L251.626953125,585.2385376019865C227.86328125,600.2908300815892,180.3359375,630.3954150407945,156.572265625,659.364374187064C132.80859375,688.3333333333334,132.80859375,716.1666666666666,132.80859375,730.0833333333334L132.80859375,744" class="er relationshipLine"/><path style="stroke: gray; fill: none;" marker-start="url(#ZERO_OR_ONE_START)" marker-end="url(#ONLY_ONE_END)" d="M320.964115703405,610.5L317.97725787783753,618.8333333333334C314.99040005227,627.1666666666666,309.016684401135,643.8333333333334,309.2723687286155,660.5C309.528053056096,677.1666666666666,316.01313736219197,693.8333333333334,319.25567951523993,702.1666666666666L322.49822166828795,710.5" class="er relationshipLine"/><path style="stroke: gray; fill: none;" marker-start="url(#ZERO_OR_ONE_START)" marker-end="url(#ONLY_ONE_END)" d="M385.121821796595,431.5L388.1086796221625,423.1666666666667C391.09553744773,414.8333333333333,397.069253098865,398.1666666666667,387.7641187369325,375.59894991700475C378.458984375,353.0312331673427,353.875,324.56246633468544,341.5830078125,310.32808291835676L329.291015625,296.09369950202813" class="er relationshipLine"/><g transform="translate(20,476 )" id="entity-SubscriptionStatus-6931099a-79cd-5829-99b6-1a8d3f2fa9d0"><rect height="90" width="155.390625" y="0" x="0" class="er entityBox"/><text style="dominant-baseline: middle; text-anchor: middle; font-size: 12px;" transform="translate(77.6953125,12)" y="0" x="0" id="text-entity-SubscriptionStatus-6931099a-79cd-5829-99b6-1a8d3f2fa9d0" class="er entityLabel">SubscriptionStatus</text><rect height="22" width="77.6953125" y="24" x="0" class="er attributeBoxOdd"/><text style="dominant-baseline: middle; font-size: 10.2px;" transform="translate(5,35)" y="0" x="0" id="text-entity-SubscriptionStatus-6931099a-79cd-5829-99b6-1a8d3f2fa9d0-attr-1-type" class="er entityLabel">PENDING</text><rect height="22" width="77.6953125" y="24" x="77.6953125" class="er attributeBoxOdd"/><text style="dominant-baseline: middle; font-size: 10.2px;" transform="translate(82.6953125,35)" y="0" x="0" id="text-entity-SubscriptionStatus-6931099a-79cd-5829-99b6-1a8d3f2fa9d0-attr-1-name" class="er entityLabel">PENDING</text><rect height="22" width="77.6953125" y="46" x="0" class="er attributeBoxEven"/><text style="dominant-baseline: middle; font-size: 10.2px;" transform="translate(5,57)" y="0" x="0" id="text-entity-SubscriptionStatus-6931099a-79cd-5829-99b6-1a8d3f2fa9d0-attr-2-type" class="er entityLabel">SUBSCRIBED</text><rect height="22" width="77.6953125" y="46" x="77.6953125" class="er attributeBoxEven"/><text style="dominant-baseline: middle; font-size: 10.2px;" transform="translate(82.6953125,57)" y="0" x="0" id="text-entity-SubscriptionStatus-6931099a-79cd-5829-99b6-1a8d3f2fa9d0-attr-2-name" class="er entityLabel">SUBSCRIBED</text><rect height="22" width="77.6953125" y="68" x="0" class="er attributeBoxOdd"/><text style="dominant-baseline: middle; font-size: 10.2px;" transform="translate(5,79)" y="0" x="0" id="text-entity-SubscriptionStatus-6931099a-79cd-5829-99b6-1a8d3f2fa9d0-attr-3-type" class="er entityLabel">UNSUBSCRIBED</text><rect height="22" width="77.6953125" y="68" x="77.6953125" class="er attributeBoxOdd"/><text style="dominant-baseline: middle; font-size: 10.2px;" transform="translate(82.6953125,79)" y="0" x="0" id="text-entity-SubscriptionStatus-6931099a-79cd-5829-99b6-1a8d3f2fa9d0-attr-3-name" class="er entityLabel">UNSUBSCRIBED</text></g><g transform="translate(79.48046875,744 )" id="entity-MessageStatus-a6337111-cf1b-5428-8975-c16431a0637a"><rect height="90" width="106.65625" y="0" x="0" class="er entityBox"/><text style="dominant-baseline: middle; text-anchor: middle; font-size: 12px;" transform="translate(53.328125,12)" y="0" x="0" id="text-entity-MessageStatus-a6337111-cf1b-5428-8975-c16431a0637a" class="er entityLabel">MessageStatus</text><rect height="22" width="53.328125" y="24" x="0" class="er attributeBoxOdd"/><text style="dominant-baseline: middle; font-size: 10.2px;" transform="translate(5,35)" y="0" x="0" id="text-entity-MessageStatus-a6337111-cf1b-5428-8975-c16431a0637a-attr-1-type" class="er entityLabel">QUEUED</text><rect height="22" width="53.328125" y="24" x="53.328125" class="er attributeBoxOdd"/><text style="dominant-baseline: middle; font-size: 10.2px;" transform="translate(58.328125,35)" y="0" x="0" id="text-entity-MessageStatus-a6337111-cf1b-5428-8975-c16431a0637a-attr-1-name" class="er entityLabel">QUEUED</text><rect height="22" width="53.328125" y="46" x="0" class="er attributeBoxEven"/><text style="dominant-baseline: middle; font-size: 10.2px;" transform="translate(5,57)" y="0" x="0" id="text-entity-MessageStatus-a6337111-cf1b-5428-8975-c16431a0637a-attr-2-type" class="er entityLabel">SENDING</text><rect height="22" width="53.328125" y="46" x="53.328125" class="er attributeBoxEven"/><text style="dominant-baseline: middle; font-size: 10.2px;" transform="translate(58.328125,57)" y="0" x="0" id="text-entity-MessageStatus-a6337111-cf1b-5428-8975-c16431a0637a-attr-2-name" class="er entityLabel">SENDING</text><rect height="22" width="53.328125" y="68" x="0" class="er attributeBoxOdd"/><text style="dominant-baseline: middle; font-size: 10.2px;" transform="translate(5,79)" y="0" x="0" id="text-entity-MessageStatus-a6337111-cf1b-5428-8975-c16431a0637a-attr-3-type" class="er entityLabel">SENT</text><rect height="22" width="53.328125" y="68" x="53.328125" class="er attributeBoxOdd"/><text style="dominant-baseline: middle; font-size: 10.2px;" transform="translate(58.328125,79)" y="0" x="0" id="text-entity-MessageStatus-a6337111-cf1b-5428-8975-c16431a0637a-attr-3-name" class="er entityLabel">SENT</text></g><g transform="translate(121.447265625,20 )" id="entity-Subscriber-4f4ea2d5-47e2-55ab-b826-0f364578da0e"><rect height="311.5" width="207.84375" y="0" x="0" class="er entityBox"/><text style="dominant-baseline: middle; text-anchor: middle; font-size: 12px;" transform="translate(103.921875,12)" y="0" x="0" id="text-entity-Subscriber-4f4ea2d5-47e2-55ab-b826-0f364578da0e" class="er entityLabel">Subscriber</text><rect height="22.5" width="93.953125" y="24" x="0" class="er attributeBoxOdd"/><text style="dominant-baseline: middle; font-size: 10.2px;" transform="translate(5,35.25)" y="0" x="0" id="text-entity-Subscriber-4f4ea2d5-47e2-55ab-b826-0f364578da0e-attr-1-type" class="er entityLabel">Int</text><rect height="22.5" width="91.390625" y="24" x="93.953125" class="er attributeBoxOdd"/><text style="dominant-baseline: middle; font-size: 10.2px;" transform="translate(98.953125,35.25)" y="0" x="0" id="text-entity-Subscriber-4f4ea2d5-47e2-55ab-b826-0f364578da0e-attr-1-name" class="er entityLabel">id</text><rect height="22.5" width="22.5" y="24" x="185.34375" class="er attributeBoxOdd"/><text style="dominant-baseline: middle; font-size: 10.2px;" transform="translate(190.34375,35.25)" y="0" x="0" id="text-entity-Subscriber-4f4ea2d5-47e2-55ab-b826-0f364578da0e-attr-1-comment" class="er entityLabel">🗝️</text><rect height="22" width="93.953125" y="46.5" x="0" class="er attributeBoxEven"/><text style="dominant-baseline: middle; font-size: 10.2px;" transform="translate(5,57.5)" y="0" x="0" id="text-entity-Subscriber-4f4ea2d5-47e2-55ab-b826-0f364578da0e-attr-2-type" class="er entityLabel">String</text><rect height="22" width="91.390625" y="46.5" x="93.953125" class="er attributeBoxEven"/><text style="dominant-baseline: middle; font-size: 10.2px;" transform="translate(98.953125,57.5)" y="0" x="0" id="text-entity-Subscriber-4f4ea2d5-47e2-55ab-b826-0f364578da0e-attr-2-name" class="er entityLabel">email</text><rect height="22" width="22.5" y="46.5" x="185.34375" class="er attributeBoxEven"/><text style="dominant-baseline: middle; font-size: 10.2px;" transform="translate(190.34375,57.5)" y="0" x="0" id="text-entity-Subscriber-4f4ea2d5-47e2-55ab-b826-0f364578da0e-attr-2-comment" class="er entityLabel"/><rect height="22" width="93.953125" y="68.5" x="0" class="er attributeBoxOdd"/><text style="dominant-baseline: middle; font-size: 10.2px;" transform="translate(5,79.5)" y="0" x="0" id="text-entity-Subscriber-4f4ea2d5-47e2-55ab-b826-0f364578da0e-attr-3-type" class="er entityLabel">String</text><rect height="22" width="91.390625" y="68.5" x="93.953125" class="er attributeBoxOdd"/><text style="dominant-baseline: middle; font-size: 10.2px;" transform="translate(98.953125,79.5)" y="0" x="0" id="text-entity-Subscriber-4f4ea2d5-47e2-55ab-b826-0f364578da0e-attr-3-name" class="er entityLabel">firstName</text><rect height="22" width="22.5" y="68.5" x="185.34375" class="er attributeBoxOdd"/><text style="dominant-baseline: middle; font-size: 10.2px;" transform="translate(190.34375,79.5)" y="0" x="0" id="text-entity-Subscriber-4f4ea2d5-47e2-55ab-b826-0f364578da0e-attr-3-comment" class="er entityLabel"/><rect height="22" width="93.953125" y="90.5" x="0" class="er attributeBoxEven"/><text style="dominant-baseline: middle; font-size: 10.2px;" transform="translate(5,101.5)" y="0" x="0" id="text-entity-Subscriber-4f4ea2d5-47e2-55ab-b826-0f364578da0e-attr-4-type" class="er entityLabel">String</text><rect height="22" width="91.390625" y="90.5" x="93.953125" class="er attributeBoxEven"/><text style="dominant-baseline: middle; font-size: 10.2px;" transform="translate(98.953125,101.5)" y="0" x="0" id="text-entity-Subscriber-4f4ea2d5-47e2-55ab-b826-0f364578da0e-attr-4-name" class="er entityLabel">lastName</text><rect height="22" width="22.5" y="90.5" x="185.34375" class="er attributeBoxEven"/><text style="dominant-baseline: middle; font-size: 10.2px;" transform="translate(190.34375,101.5)" y="0" x="0" id="text-entity-Subscriber-4f4ea2d5-47e2-55ab-b826-0f364578da0e-attr-4-comment" class="er entityLabel"/><rect height="22" width="93.953125" y="112.5" x="0" class="er attributeBoxOdd"/><text style="dominant-baseline: middle; font-size: 10.2px;" transform="translate(5,123.5)" y="0" x="0" id="text-entity-Subscriber-4f4ea2d5-47e2-55ab-b826-0f364578da0e-attr-5-type" class="er entityLabel">String</text><rect height="22" width="91.390625" y="112.5" x="93.953125" class="er attributeBoxOdd"/><text style="dominant-baseline: middle; font-size: 10.2px;" transform="translate(98.953125,123.5)" y="0" x="0" id="text-entity-Subscriber-4f4ea2d5-47e2-55ab-b826-0f364578da0e-attr-5-name" class="er entityLabel">tags</text><rect height="22" width="22.5" y="112.5" x="185.34375" class="er attributeBoxOdd"/><text style="dominant-baseline: middle; font-size: 10.2px;" transform="translate(190.34375,123.5)" y="0" x="0" id="text-entity-Subscriber-4f4ea2d5-47e2-55ab-b826-0f364578da0e-attr-5-comment" class="er entityLabel"/><rect height="22" width="93.953125" y="134.5" x="0" class="er attributeBoxEven"/><text style="dominant-baseline: middle; font-size: 10.2px;" transform="translate(5,145.5)" y="0" x="0" id="text-entity-Subscriber-4f4ea2d5-47e2-55ab-b826-0f364578da0e-attr-6-type" class="er entityLabel">SubscriptionStatus</text><rect height="22" width="91.390625" y="134.5" x="93.953125" class="er attributeBoxEven"/><text style="dominant-baseline: middle; font-size: 10.2px;" transform="translate(98.953125,145.5)" y="0" x="0" id="text-entity-Subscriber-4f4ea2d5-47e2-55ab-b826-0f364578da0e-attr-6-name" class="er entityLabel">status</text><rect height="22" width="22.5" y="134.5" x="185.34375" class="er attributeBoxEven"/><text style="dominant-baseline: middle; font-size: 10.2px;" transform="translate(190.34375,145.5)" y="0" x="0" id="text-entity-Subscriber-4f4ea2d5-47e2-55ab-b826-0f364578da0e-attr-6-comment" class="er entityLabel"/><rect height="22" width="93.953125" y="156.5" x="0" class="er attributeBoxOdd"/><text style="dominant-baseline: middle; font-size: 10.2px;" transform="translate(5,167.5)" y="0" x="0" id="text-entity-Subscriber-4f4ea2d5-47e2-55ab-b826-0f364578da0e-attr-7-type" class="er entityLabel">String</text><rect height="22" width="91.390625" y="156.5" x="93.953125" class="er attributeBoxOdd"/><text style="dominant-baseline: middle; font-size: 10.2px;" transform="translate(98.953125,167.5)" y="0" x="0" id="text-entity-Subscriber-4f4ea2d5-47e2-55ab-b826-0f364578da0e-attr-7-name" class="er entityLabel">confirmationCode</text><rect height="22" width="22.5" y="156.5" x="185.34375" class="er attributeBoxOdd"/><text style="dominant-baseline: middle; font-size: 10.2px;" transform="translate(190.34375,167.5)" y="0" x="0" id="text-entity-Subscriber-4f4ea2d5-47e2-55ab-b826-0f364578da0e-attr-7-comment" class="er entityLabel"/><rect height="22.5" width="93.953125" y="178.5" x="0" class="er attributeBoxEven"/><text style="dominant-baseline: middle; font-size: 10.2px;" transform="translate(5,189.75)" y="0" x="0" id="text-entity-Subscriber-4f4ea2d5-47e2-55ab-b826-0f364578da0e-attr-8-type" class="er entityLabel">DateTime</text><rect height="22.5" width="91.390625" y="178.5" x="93.953125" class="er attributeBoxEven"/><text style="dominant-baseline: middle; font-size: 10.2px;" transform="translate(98.953125,189.75)" y="0" x="0" id="text-entity-Subscriber-4f4ea2d5-47e2-55ab-b826-0f364578da0e-attr-8-name" class="er entityLabel">confirmedAt</text><rect height="22.5" width="22.5" y="178.5" x="185.34375" class="er attributeBoxEven"/><text style="dominant-baseline: middle; font-size: 10.2px;" transform="translate(190.34375,189.75)" y="0" x="0" id="text-entity-Subscriber-4f4ea2d5-47e2-55ab-b826-0f364578da0e-attr-8-comment" class="er entityLabel">❓</text><rect height="22" width="93.953125" y="201" x="0" class="er attributeBoxOdd"/><text style="dominant-baseline: middle; font-size: 10.2px;" transform="translate(5,212)" y="0" x="0" id="text-entity-Subscriber-4f4ea2d5-47e2-55ab-b826-0f364578da0e-attr-9-type" class="er entityLabel">String</text><rect height="22" width="91.390625" y="201" x="93.953125" class="er attributeBoxOdd"/><text style="dominant-baseline: middle; font-size: 10.2px;" transform="translate(98.953125,212)" y="0" x="0" id="text-entity-Subscriber-4f4ea2d5-47e2-55ab-b826-0f364578da0e-attr-9-name" class="er entityLabel">unsubscribeCode</text><rect height="22" width="22.5" y="201" x="185.34375" class="er attributeBoxOdd"/><text style="dominant-baseline: middle; font-size: 10.2px;" transform="translate(190.34375,212)" y="0" x="0" id="text-entity-Subscriber-4f4ea2d5-47e2-55ab-b826-0f364578da0e-attr-9-comment" class="er entityLabel"/><rect height="22.5" width="93.953125" y="223" x="0" class="er attributeBoxEven"/><text style="dominant-baseline: middle; font-size: 10.2px;" transform="translate(5,234.25)" y="0" x="0" id="text-entity-Subscriber-4f4ea2d5-47e2-55ab-b826-0f364578da0e-attr-10-type" class="er entityLabel">DateTime</text><rect height="22.5" width="91.390625" y="223" x="93.953125" class="er attributeBoxEven"/><text style="dominant-baseline: middle; font-size: 10.2px;" transform="translate(98.953125,234.25)" y="0" x="0" id="text-entity-Subscriber-4f4ea2d5-47e2-55ab-b826-0f364578da0e-attr-10-name" class="er entityLabel">unsubscribedAt</text><rect height="22.5" width="22.5" y="223" x="185.34375" class="er attributeBoxEven"/><text style="dominant-baseline: middle; font-size: 10.2px;" transform="translate(190.34375,234.25)" y="0" x="0" id="text-entity-Subscriber-4f4ea2d5-47e2-55ab-b826-0f364578da0e-attr-10-comment" class="er entityLabel">❓</text><rect height="22" width="93.953125" y="245.5" x="0" class="er attributeBoxOdd"/><text style="dominant-baseline: middle; font-size: 10.2px;" transform="translate(5,256.5)" y="0" x="0" id="text-entity-Subscriber-4f4ea2d5-47e2-55ab-b826-0f364578da0e-attr-11-type" class="er entityLabel">DateTime</text><rect height="22" width="91.390625" y="245.5" x="93.953125" class="er attributeBoxOdd"/><text style="dominant-baseline: middle; font-size: 10.2px;" transform="translate(98.953125,256.5)" y="0" x="0" id="text-entity-Subscriber-4f4ea2d5-47e2-55ab-b826-0f364578da0e-attr-11-name" class="er entityLabel">createdOn</text><rect height="22" width="22.5" y="245.5" x="185.34375" class="er attributeBoxOdd"/><text style="dominant-baseline: middle; font-size: 10.2px;" transform="translate(190.34375,256.5)" y="0" x="0" id="text-entity-Subscriber-4f4ea2d5-47e2-55ab-b826-0f364578da0e-attr-11-comment" class="er entityLabel"/><rect height="22" width="93.953125" y="267.5" x="0" class="er attributeBoxEven"/><text style="dominant-baseline: middle; font-size: 10.2px;" transform="translate(5,278.5)" y="0" x="0" id="text-entity-Subscriber-4f4ea2d5-47e2-55ab-b826-0f364578da0e-attr-12-type" class="er entityLabel">DateTime</text><rect height="22" width="91.390625" y="267.5" x="93.953125" class="er attributeBoxEven"/><text style="dominant-baseline: middle; font-size: 10.2px;" transform="translate(98.953125,278.5)" y="0" x="0" id="text-entity-Subscriber-4f4ea2d5-47e2-55ab-b826-0f364578da0e-attr-12-name" class="er entityLabel">createdAt</text><rect height="22" width="22.5" y="267.5" x="185.34375" class="er attributeBoxEven"/><text style="dominant-baseline: middle; font-size: 10.2px;" transform="translate(190.34375,278.5)" y="0" x="0" id="text-entity-Subscriber-4f4ea2d5-47e2-55ab-b826-0f364578da0e-attr-12-comment" class="er entityLabel"/><rect height="22" width="93.953125" y="289.5" x="0" class="er attributeBoxOdd"/><text style="dominant-baseline: middle; font-size: 10.2px;" transform="translate(5,300.5)" y="0" x="0" id="text-entity-Subscriber-4f4ea2d5-47e2-55ab-b826-0f364578da0e-attr-13-type" class="er entityLabel">DateTime</text><rect height="22" width="91.390625" y="289.5" x="93.953125" class="er attributeBoxOdd"/><text style="dominant-baseline: middle; font-size: 10.2px;" transform="translate(98.953125,300.5)" y="0" x="0" id="text-entity-Subscriber-4f4ea2d5-47e2-55ab-b826-0f364578da0e-attr-13-name" class="er entityLabel">updatedAt</text><rect height="22" width="22.5" y="289.5" x="185.34375" class="er attributeBoxOdd"/><text style="dominant-baseline: middle; font-size: 10.2px;" transform="translate(190.34375,300.5)" y="0" x="0" id="text-entity-Subscriber-4f4ea2d5-47e2-55ab-b826-0f364578da0e-attr-13-comment" class="er entityLabel"/></g><g transform="translate(286.13671875,710.5 )" id="entity-Broadcast-160fa7a4-1202-5d73-9e76-041a3cd5b2c3"><rect height="157" width="133.8125" y="0" x="0" class="er entityBox"/><text style="dominant-baseline: middle; text-anchor: middle; font-size: 12px;" transform="translate(66.90625,12)" y="0" x="0" id="text-entity-Broadcast-160fa7a4-1202-5d73-9e76-041a3cd5b2c3" class="er entityLabel">Broadcast</text><rect height="22.5" width="53.6640625" y="24" x="0" class="er attributeBoxOdd"/><text style="dominant-baseline: middle; font-size: 10.2px;" transform="translate(5,35.25)" y="0" x="0" id="text-entity-Broadcast-160fa7a4-1202-5d73-9e76-041a3cd5b2c3-attr-1-type" class="er entityLabel">Int</text><rect height="22.5" width="57.6484375" y="24" x="53.6640625" class="er attributeBoxOdd"/><text style="dominant-baseline: middle; font-size: 10.2px;" transform="translate(58.6640625,35.25)" y="0" x="0" id="text-entity-Broadcast-160fa7a4-1202-5d73-9e76-041a3cd5b2c3-attr-1-name" class="er entityLabel">id</text><rect height="22.5" width="22.5" y="24" x="111.3125" class="er attributeBoxOdd"/><text style="dominant-baseline: middle; font-size: 10.2px;" transform="translate(116.3125,35.25)" y="0" x="0" id="text-entity-Broadcast-160fa7a4-1202-5d73-9e76-041a3cd5b2c3-attr-1-comment" class="er entityLabel">🗝️</text><rect height="22" width="53.6640625" y="46.5" x="0" class="er attributeBoxEven"/><text style="dominant-baseline: middle; font-size: 10.2px;" transform="translate(5,57.5)" y="0" x="0" id="text-entity-Broadcast-160fa7a4-1202-5d73-9e76-041a3cd5b2c3-attr-2-type" class="er entityLabel">String</text><rect height="22" width="57.6484375" y="46.5" x="53.6640625" class="er attributeBoxEven"/><text style="dominant-baseline: middle; font-size: 10.2px;" transform="translate(58.6640625,57.5)" y="0" x="0" id="text-entity-Broadcast-160fa7a4-1202-5d73-9e76-041a3cd5b2c3-attr-2-name" class="er entityLabel">subject</text><rect height="22" width="22.5" y="46.5" x="111.3125" class="er attributeBoxEven"/><text style="dominant-baseline: middle; font-size: 10.2px;" transform="translate(116.3125,57.5)" y="0" x="0" id="text-entity-Broadcast-160fa7a4-1202-5d73-9e76-041a3cd5b2c3-attr-2-comment" class="er entityLabel"/><rect height="22" width="53.6640625" y="68.5" x="0" class="er attributeBoxOdd"/><text style="dominant-baseline: middle; font-size: 10.2px;" transform="translate(5,79.5)" y="0" x="0" id="text-entity-Broadcast-160fa7a4-1202-5d73-9e76-041a3cd5b2c3-attr-3-type" class="er entityLabel">String</text><rect height="22" width="57.6484375" y="68.5" x="53.6640625" class="er attributeBoxOdd"/><text style="dominant-baseline: middle; font-size: 10.2px;" transform="translate(58.6640625,79.5)" y="0" x="0" id="text-entity-Broadcast-160fa7a4-1202-5d73-9e76-041a3cd5b2c3-attr-3-name" class="er entityLabel">content</text><rect height="22" width="22.5" y="68.5" x="111.3125" class="er attributeBoxOdd"/><text style="dominant-baseline: middle; font-size: 10.2px;" transform="translate(116.3125,79.5)" y="0" x="0" id="text-entity-Broadcast-160fa7a4-1202-5d73-9e76-041a3cd5b2c3-attr-3-comment" class="er entityLabel"/><rect height="22.5" width="53.6640625" y="90.5" x="0" class="er attributeBoxEven"/><text style="dominant-baseline: middle; font-size: 10.2px;" transform="translate(5,101.75)" y="0" x="0" id="text-entity-Broadcast-160fa7a4-1202-5d73-9e76-041a3cd5b2c3-attr-4-type" class="er entityLabel">DateTime</text><rect height="22.5" width="57.6484375" y="90.5" x="53.6640625" class="er attributeBoxEven"/><text style="dominant-baseline: middle; font-size: 10.2px;" transform="translate(58.6640625,101.75)" y="0" x="0" id="text-entity-Broadcast-160fa7a4-1202-5d73-9e76-041a3cd5b2c3-attr-4-name" class="er entityLabel">sentAt</text><rect height="22.5" width="22.5" y="90.5" x="111.3125" class="er attributeBoxEven"/><text style="dominant-baseline: middle; font-size: 10.2px;" transform="translate(116.3125,101.75)" y="0" x="0" id="text-entity-Broadcast-160fa7a4-1202-5d73-9e76-041a3cd5b2c3-attr-4-comment" class="er entityLabel">❓</text><rect height="22" width="53.6640625" y="113" x="0" class="er attributeBoxOdd"/><text style="dominant-baseline: middle; font-size: 10.2px;" transform="translate(5,124)" y="0" x="0" id="text-entity-Broadcast-160fa7a4-1202-5d73-9e76-041a3cd5b2c3-attr-5-type" class="er entityLabel">DateTime</text><rect height="22" width="57.6484375" y="113" x="53.6640625" class="er attributeBoxOdd"/><text style="dominant-baseline: middle; font-size: 10.2px;" transform="translate(58.6640625,124)" y="0" x="0" id="text-entity-Broadcast-160fa7a4-1202-5d73-9e76-041a3cd5b2c3-attr-5-name" class="er entityLabel">createdAt</text><rect height="22" width="22.5" y="113" x="111.3125" class="er attributeBoxOdd"/><text style="dominant-baseline: middle; font-size: 10.2px;" transform="translate(116.3125,124)" y="0" x="0" id="text-entity-Broadcast-160fa7a4-1202-5d73-9e76-041a3cd5b2c3-attr-5-comment" class="er entityLabel"/><rect height="22" width="53.6640625" y="135" x="0" class="er attributeBoxEven"/><text style="dominant-baseline: middle; font-size: 10.2px;" transform="translate(5,146)" y="0" x="0" id="text-entity-Broadcast-160fa7a4-1202-5d73-9e76-041a3cd5b2c3-attr-6-type" class="er entityLabel">DateTime</text><rect height="22" width="57.6484375" y="135" x="53.6640625" class="er attributeBoxEven"/><text style="dominant-baseline: middle; font-size: 10.2px;" transform="translate(58.6640625,146)" y="0" x="0" id="text-entity-Broadcast-160fa7a4-1202-5d73-9e76-041a3cd5b2c3-attr-6-name" class="er entityLabel">updatedAt</text><rect height="22" width="22.5" y="135" x="111.3125" class="er attributeBoxEven"/><text style="dominant-baseline: middle; font-size: 10.2px;" transform="translate(116.3125,146)" y="0" x="0" id="text-entity-Broadcast-160fa7a4-1202-5d73-9e76-041a3cd5b2c3-attr-6-comment" class="er entityLabel"/></g><g transform="translate(275.390625,431.5 )" id="entity-Message-a3849f5f-6e30-5367-9632-ff041b746560"><rect height="179" width="155.3046875" y="0" x="0" class="er entityBox"/><text style="dominant-baseline: middle; text-anchor: middle; font-size: 12px;" transform="translate(77.65234375,12)" y="0" x="0" id="text-entity-Message-a3849f5f-6e30-5367-9632-ff041b746560" class="er entityLabel">Message</text><rect height="22.5" width="75.15625" y="24" x="0" class="er attributeBoxOdd"/><text style="dominant-baseline: middle; font-size: 10.2px;" transform="translate(5,35.25)" y="0" x="0" id="text-entity-Message-a3849f5f-6e30-5367-9632-ff041b746560-attr-1-type" class="er entityLabel">Int</text><rect height="22.5" width="57.6484375" y="24" x="75.15625" class="er attributeBoxOdd"/><text style="dominant-baseline: middle; font-size: 10.2px;" transform="translate(80.15625,35.25)" y="0" x="0" id="text-entity-Message-a3849f5f-6e30-5367-9632-ff041b746560-attr-1-name" class="er entityLabel">id</text><rect height="22.5" width="22.5" y="24" x="132.8046875" class="er attributeBoxOdd"/><text style="dominant-baseline: middle; font-size: 10.2px;" transform="translate(137.8046875,35.25)" y="0" x="0" id="text-entity-Message-a3849f5f-6e30-5367-9632-ff041b746560-attr-1-comment" class="er entityLabel">🗝️</text><rect height="22" width="75.15625" y="46.5" x="0" class="er attributeBoxEven"/><text style="dominant-baseline: middle; font-size: 10.2px;" transform="translate(5,57.5)" y="0" x="0" id="text-entity-Message-a3849f5f-6e30-5367-9632-ff041b746560-attr-2-type" class="er entityLabel">String</text><rect height="22" width="57.6484375" y="46.5" x="75.15625" class="er attributeBoxEven"/><text style="dominant-baseline: middle; font-size: 10.2px;" transform="translate(80.15625,57.5)" y="0" x="0" id="text-entity-Message-a3849f5f-6e30-5367-9632-ff041b746560-attr-2-name" class="er entityLabel">subject</text><rect height="22" width="22.5" y="46.5" x="132.8046875" class="er attributeBoxEven"/><text style="dominant-baseline: middle; font-size: 10.2px;" transform="translate(137.8046875,57.5)" y="0" x="0" id="text-entity-Message-a3849f5f-6e30-5367-9632-ff041b746560-attr-2-comment" class="er entityLabel"/><rect height="22" width="75.15625" y="68.5" x="0" class="er attributeBoxOdd"/><text style="dominant-baseline: middle; font-size: 10.2px;" transform="translate(5,79.5)" y="0" x="0" id="text-entity-Message-a3849f5f-6e30-5367-9632-ff041b746560-attr-3-type" class="er entityLabel">String</text><rect height="22" width="57.6484375" y="68.5" x="75.15625" class="er attributeBoxOdd"/><text style="dominant-baseline: middle; font-size: 10.2px;" transform="translate(80.15625,79.5)" y="0" x="0" id="text-entity-Message-a3849f5f-6e30-5367-9632-ff041b746560-attr-3-name" class="er entityLabel">content</text><rect height="22" width="22.5" y="68.5" x="132.8046875" class="er attributeBoxOdd"/><text style="dominant-baseline: middle; font-size: 10.2px;" transform="translate(137.8046875,79.5)" y="0" x="0" id="text-entity-Message-a3849f5f-6e30-5367-9632-ff041b746560-attr-3-comment" class="er entityLabel"/><rect height="22" width="75.15625" y="90.5" x="0" class="er attributeBoxEven"/><text style="dominant-baseline: middle; font-size: 10.2px;" transform="translate(5,101.5)" y="0" x="0" id="text-entity-Message-a3849f5f-6e30-5367-9632-ff041b746560-attr-4-type" class="er entityLabel">MessageStatus</text><rect height="22" width="57.6484375" y="90.5" x="75.15625" class="er attributeBoxEven"/><text style="dominant-baseline: middle; font-size: 10.2px;" transform="translate(80.15625,101.5)" y="0" x="0" id="text-entity-Message-a3849f5f-6e30-5367-9632-ff041b746560-attr-4-name" class="er entityLabel">status</text><rect height="22" width="22.5" y="90.5" x="132.8046875" class="er attributeBoxEven"/><text style="dominant-baseline: middle; font-size: 10.2px;" transform="translate(137.8046875,101.5)" y="0" x="0" id="text-entity-Message-a3849f5f-6e30-5367-9632-ff041b746560-attr-4-comment" class="er entityLabel"/><rect height="22.5" width="75.15625" y="112.5" x="0" class="er attributeBoxOdd"/><text style="dominant-baseline: middle; font-size: 10.2px;" transform="translate(5,123.75)" y="0" x="0" id="text-entity-Message-a3849f5f-6e30-5367-9632-ff041b746560-attr-5-type" class="er entityLabel">DateTime</text><rect height="22.5" width="57.6484375" y="112.5" x="75.15625" class="er attributeBoxOdd"/><text style="dominant-baseline: middle; font-size: 10.2px;" transform="translate(80.15625,123.75)" y="0" x="0" id="text-entity-Message-a3849f5f-6e30-5367-9632-ff041b746560-attr-5-name" class="er entityLabel">sentAt</text><rect height="22.5" width="22.5" y="112.5" x="132.8046875" class="er attributeBoxOdd"/><text style="dominant-baseline: middle; font-size: 10.2px;" transform="translate(137.8046875,123.75)" y="0" x="0" id="text-entity-Message-a3849f5f-6e30-5367-9632-ff041b746560-attr-5-comment" class="er entityLabel">❓</text><rect height="22" width="75.15625" y="135" x="0" class="er attributeBoxEven"/><text style="dominant-baseline: middle; font-size: 10.2px;" transform="translate(5,146)" y="0" x="0" id="text-entity-Message-a3849f5f-6e30-5367-9632-ff041b746560-attr-6-type" class="er entityLabel">DateTime</text><rect height="22" width="57.6484375" y="135" x="75.15625" class="er attributeBoxEven"/><text style="dominant-baseline: middle; font-size: 10.2px;" transform="translate(80.15625,146)" y="0" x="0" id="text-entity-Message-a3849f5f-6e30-5367-9632-ff041b746560-attr-6-name" class="er entityLabel">createdAt</text><rect height="22" width="22.5" y="135" x="132.8046875" class="er attributeBoxEven"/><text style="dominant-baseline: middle; font-size: 10.2px;" transform="translate(137.8046875,146)" y="0" x="0" id="text-entity-Message-a3849f5f-6e30-5367-9632-ff041b746560-attr-6-comment" class="er entityLabel"/><rect height="22" width="75.15625" y="157" x="0" class="er attributeBoxOdd"/><text style="dominant-baseline: middle; font-size: 10.2px;" transform="translate(5,168)" y="0" x="0" id="text-entity-Message-a3849f5f-6e30-5367-9632-ff041b746560-attr-7-type" class="er entityLabel">DateTime</text><rect height="22" width="57.6484375" y="157" x="75.15625" class="er attributeBoxOdd"/><text style="dominant-baseline: middle; font-size: 10.2px;" transform="translate(80.15625,168)" y="0" x="0" id="text-entity-Message-a3849f5f-6e30-5367-9632-ff041b746560-attr-7-name" class="er entityLabel">updatedAt</text><rect height="22" width="22.5" y="157" x="132.8046875" class="er attributeBoxOdd"/><text style="dominant-baseline: middle; font-size: 10.2px;" transform="translate(137.8046875,168)" y="0" x="0" id="text-entity-Message-a3849f5f-6e30-5367-9632-ff041b746560-attr-7-comment" class="er entityLabel"/></g><rect height="14" width="66.1171875" y="393.7512512207031" x="67.7300796508789" class="er relationshipLabelBox"/><text style="text-anchor: middle; dominant-baseline: middle; font-size: 12px;" y="400.7512512207031" x="100.7886734008789" id="rel1" class="er relationshipLabel">enum:status</text><rect height="14" width="49.953125" y="376.28802490234375" x="253.73275756835938" class="er relationshipLabelBox"/><text style="text-anchor: middle; dominant-baseline: middle; font-size: 12px;" y="383.28802490234375" x="278.7093200683594" id="rel2" class="er relationshipLabel">messages</text><rect height="14" width="49.953125" y="653.6824340820312" x="371.83367919921875" class="er relationshipLabelBox"/><text style="text-anchor: middle; dominant-baseline: middle; font-size: 12px;" y="660.6824340820312" x="396.81024169921875" id="rel3" class="er relationshipLabel">messages</text><rect height="14" width="66.1171875" y="631.4380493164062" x="144.1824188232422" class="er relationshipLabelBox"/><text style="text-anchor: middle; dominant-baseline: middle; font-size: 12px;" y="638.4380493164062" x="177.2410125732422" id="rel4" class="er relationshipLabel">enum:status</text><rect height="14" width="52.640625" y="653.6824340820312" x="282.95538330078125" class="er relationshipLabelBox"/><text style="text-anchor: middle; dominant-baseline: middle; font-size: 12px;" y="660.6824340820312" x="309.27569580078125" id="rel5" class="er relationshipLabel">broadcast</text><rect height="14" width="54.8828125" y="350.371826171875" x="350.5889587402344" class="er relationshipLabelBox"/><text style="text-anchor: middle; dominant-baseline: middle; font-size: 12px;" y="357.371826171875" x="378.0303649902344" id="rel6" class="er relationshipLabel">subscriber</text></svg>